<svg width="32" height="32" viewBox="0 0 32 32" fill="none" xmlns="http://www.w3.org/2000/svg">
<path d="M27.7872 6.14667C27.1061 5.46534 26.2976 4.92486 25.4076 4.55611C24.5177 4.18736 23.5638 3.99757 22.6005 3.99757C21.6372 3.99757 20.6833 4.18736 19.7933 4.55611C18.9034 4.92486 18.0948 5.46534 17.4138 6.14667L16.0005 7.56L14.5872 6.14667C13.2116 4.77108 11.3459 3.99828 9.40049 3.99828C7.45511 3.99828 5.58941 4.77108 4.21382 6.14667C2.83823 7.52226 2.06543 9.38796 2.06543 11.3333C2.06543 13.2787 2.83823 15.1444 4.21382 16.52L5.62715 17.9333L16.0005 28.3067L26.3738 17.9333L27.7872 16.52C28.4685 15.839 29.009 15.0304 29.3777 14.1405C29.7465 13.2505 29.9363 12.2966 29.9363 11.3333C29.9363 10.37 29.7465 9.41614 29.3777 8.52619C29.009 7.63625 28.4685 6.82767 27.7872 6.14667Z" stroke="#F36533" stroke-width="2" stroke-linecap="round" stroke-linejoin="round"/>
</svg>
