<svg width="30" height="28" viewBox="0 0 30 28" fill="none" xmlns="http://www.w3.org/2000/svg">
<path d="M26.7872 4.14667C26.1061 3.46534 25.2976 2.92486 24.4076 2.55611C23.5177 2.18736 22.5638 1.99757 21.6005 1.99757C20.6372 1.99757 19.6833 2.18736 18.7933 2.55611C17.9034 2.92486 17.0948 3.46534 16.4138 4.14667L15.0005 5.56L13.5872 4.14667C12.2116 2.77108 10.3459 1.99828 8.40049 1.99828C6.45511 1.99828 4.58941 2.77108 3.21382 4.14667C1.83823 5.52226 1.06543 7.38796 1.06543 9.33333C1.06543 11.2787 1.83823 13.1444 3.21382 14.52L4.62715 15.9333L15.0005 26.3067L25.3738 15.9333L26.7872 14.52C27.4685 13.839 28.009 13.0304 28.3777 12.1405C28.7465 11.2505 28.9363 10.2966 28.9363 9.33333C28.9363 8.37002 28.7465 7.41614 28.3777 6.52619C28.009 5.63625 27.4685 4.82767 26.7872 4.14667Z" stroke="white" stroke-width="2" stroke-linecap="round" stroke-linejoin="round"/>
</svg>
