<svg width="114" height="114" viewBox="0 0 114 114" fill="none" xmlns="http://www.w3.org/2000/svg">
<path d="M90.25 14.25H23.75C18.5033 14.25 14.25 18.5033 14.25 23.75V90.25C14.25 95.4967 18.5033 99.75 23.75 99.75H90.25C95.4967 99.75 99.75 95.4967 99.75 90.25V23.75C99.75 18.5033 95.4967 14.25 90.25 14.25Z" stroke="#F2F2F2" stroke-opacity="0.56" stroke-width="2" stroke-linecap="round" stroke-linejoin="round"/>
<path d="M40.375 47.5C44.31 47.5 47.5 44.31 47.5 40.375C47.5 36.44 44.31 33.25 40.375 33.25C36.44 33.25 33.25 36.44 33.25 40.375C33.25 44.31 36.44 47.5 40.375 47.5Z" stroke="#F2F2F2" stroke-opacity="0.56" stroke-width="2" stroke-linecap="round" stroke-linejoin="round"/>
<path d="M99.75 71.25L76 47.5L23.75 99.75" stroke="#F2F2F2" stroke-opacity="0.56" stroke-width="2" stroke-linecap="round" stroke-linejoin="round"/>
</svg>
