<svg width="102" height="102" viewBox="0 0 102 102" fill="none" xmlns="http://www.w3.org/2000/svg">
<path fill-rule="evenodd" clip-rule="evenodd" d="M12.5 2.5C6.97715 2.5 2.5 6.97715 2.5 12.5V89.5C2.5 94.8868 6.75933 99.2788 12.0939 99.4919L72.2929 39.2929C72.6834 38.9024 73.3166 38.9024 73.7071 39.2929L99.5 65.0858V12.5C99.5 6.97715 95.0229 2.5 89.5 2.5H12.5ZM101.5 67.4941V12.5C101.5 5.87258 96.1274 0.5 89.5 0.5H12.5C5.87258 0.5 0.5 5.87258 0.5 12.5V89.5C0.5 96.1274 5.87258 101.5 12.5 101.5H89.5C96.1274 101.5 101.5 96.1274 101.5 89.5V67.5059C101.5 67.502 101.5 67.4981 101.5 67.4941ZM99.5 67.9142L73 41.4142L14.9142 99.5H89.5C95.0229 99.5 99.5 95.0229 99.5 89.5V67.9142ZM31.75 24.5C27.7459 24.5 24.5 27.7459 24.5 31.75C24.5 35.754 27.7459 39 31.75 39C35.754 39 39 35.754 39 31.75C39 27.7459 35.754 24.5 31.75 24.5ZM22.5 31.75C22.5 26.6413 26.6413 22.5 31.75 22.5C36.8586 22.5 41 26.6413 41 31.75C41 36.8586 36.8586 41 31.75 41C26.6413 41 22.5 36.8586 22.5 31.75Z" fill="#F2F2F2" fill-opacity="0.56"/>
</svg>
